<svg xmlns="http://www.w3.org/2000/svg" version="1.1" xmlns:xlink="http://www.w3.org/1999/xlink" width="512" height="512"><svg version="1.1" id="SvgjsSvg1001" xmlns="http://www.w3.org/2000/svg" xmlns:xlink="http://www.w3.org/1999/xlink" x="0px" y="0px" viewBox="0 0 512 512" style="enable-background:new 0 0 512 512;" xml:space="preserve"><circle style="fill:#FFD55C;" cx="256" cy="256" r="256"></circle><polygon style="fill:#E6E5E5;" points="300.015,407.978 211.948,407.978 219.949,363.077 292.002,363.077 "></polygon><polygon style="fill:#D9D8D7;" points="300.015,407.978 292.002,363.077 219.949,363.077 277.567,407.978 "></polygon><g><path style="fill:#FFFFFF;" d="M323.597,414.565H188.366v-2.458c0-1.057,0.393-2.111,1.216-2.923 c0.803-0.806,1.86-1.206,2.913-1.206h126.966c1.064,0,2.121,0.4,2.927,1.206c0.806,0.813,1.209,1.863,1.209,2.923L323.597,414.565 L323.597,414.565z"></path><path style="fill:#FFFFFF;" d="M414.555,334.042v21.326c0,4.248-3.482,7.71-7.73,7.71H105.158c-4.225,0-7.713-3.462-7.713-7.71 v-21.326H414.555z"></path></g><path style="fill:#242D3C;" d="M414.555,334.042V131.584c0-4.231-3.478-7.723-7.733-7.723H105.145c-4.225,0-7.697,3.492-7.697,7.723 v202.458H414.555z"></path><rect x="113.466" y="139.892" style="fill:#FFFFFF;" width="285.035" height="178.14"></rect><rect x="127.382" y="210.511" style="fill:#FF6D3B;" width="67.221" height="67.217"></rect><rect x="144.992" y="228.121" style="fill:#F15424;" width="31.998" height="32.002"></rect><rect x="144.358" y="284.903" style="fill:#3E4959;" width="33.263" height="11.02"></rect><rect x="151.205" y="289.429" style="fill:#CCCBCA;" width="19.568" height="1.956"></rect><rect x="237.568" y="210.511" style="fill:#3E4959;" width="58.097" height="11.02"></rect><g><rect x="237.568" y="229.112" style="fill:#CCCBCA;" width="116.207" height="3.663"></rect><rect x="237.568" y="240.343" style="fill:#CCCBCA;" width="116.207" height="3.673"></rect><rect x="237.568" y="251.574" style="fill:#CCCBCA;" width="116.207" height="3.676"></rect><rect x="237.568" y="262.805" style="fill:#CCCBCA;" width="116.207" height="3.67"></rect><rect x="268.519" y="274.059" style="fill:#CCCBCA;" width="54.312" height="3.67"></rect><polygon style="fill:#CCCBCA;" points="206.746,244.115 221.689,259.052 221.689,229.184 "></polygon><polygon style="fill:#CCCBCA;" points="384.588,244.115 369.644,259.052 369.644,229.184 "></polygon></g><path style="fill:#FF6D3B;" d="M145.137,171.969c0,4.053-1.549,8.103-4.638,11.198c-3.095,3.092-7.148,4.634-11.201,4.634l0,0 c-4.053,0-8.103-1.546-11.195-4.634c-3.095-3.095-4.638-7.145-4.638-11.198v-32.084h31.671L145.137,171.969L145.137,171.969z"></path><path style="fill:#FFC640;" d="M176.805,171.969c0,4.053-1.549,8.103-4.638,11.198c-3.092,3.092-7.142,4.634-11.201,4.634l0,0 c-4.053,0-8.103-1.546-11.195-4.634c-3.095-3.095-4.638-7.145-4.638-11.198v-32.084h31.671L176.805,171.969L176.805,171.969z"></path><path style="fill:#FF6D3B;" d="M208.476,171.969c0,4.053-1.549,8.103-4.638,11.198c-3.092,3.092-7.142,4.634-11.198,4.634l0,0 c-4.056,0-8.106-1.546-11.198-4.634c-3.095-3.095-4.638-7.145-4.638-11.198v-32.084h31.671L208.476,171.969L208.476,171.969z"></path><path style="fill:#FFC640;" d="M240.148,171.969c0,4.053-1.549,8.103-4.638,11.198c-3.092,3.092-7.142,4.634-11.195,4.634l0,0 c-4.06,0-8.109-1.546-11.201-4.634c-3.092-3.095-4.638-7.145-4.638-11.198v-32.084h31.671V171.969z"></path><path style="fill:#FF6D3B;" d="M271.822,171.969c0,4.053-1.553,8.103-4.641,11.198c-3.092,3.092-7.145,4.634-11.195,4.634l0,0 c-4.056,0-8.109-1.546-11.201-4.634c-3.092-3.095-4.638-7.145-4.638-11.198v-32.084h31.675V171.969z"></path><path style="fill:#FFC640;" d="M303.494,171.969c0,4.053-1.546,8.103-4.634,11.198c-3.098,3.092-7.145,4.634-11.201,4.634l0,0 c-4.056,0-8.106-1.546-11.201-4.634c-3.092-3.095-4.634-7.145-4.634-11.198v-32.084h31.671V171.969z"></path><path style="fill:#FF6D3B;" d="M335.168,171.969c0,4.053-1.553,8.103-4.641,11.198c-3.092,3.092-7.145,4.634-11.201,4.634l0,0 c-4.05,0-8.103-1.546-11.195-4.634c-3.095-3.095-4.638-7.145-4.638-11.198v-32.084h31.675V171.969z"></path><path style="fill:#FFC640;" d="M366.836,171.969c0,4.053-1.546,8.103-4.638,11.198c-3.095,3.092-7.145,4.634-11.201,4.634l0,0 c-4.056,0-8.103-1.546-11.195-4.634c-3.095-3.095-4.634-7.145-4.634-11.198v-32.084h31.668V171.969z"></path><path style="fill:#FF6D3B;" d="M398.508,171.969c0,4.053-1.546,8.103-4.634,11.198c-3.095,3.092-7.148,4.634-11.205,4.634l0,0 c-4.053,0-8.106-1.546-11.198-4.634c-3.092-3.095-4.634-7.145-4.634-11.198v-32.084h31.671V171.969z"></path></svg><style>@media (prefers-color-scheme: light) { :root { filter: none; } }
@media (prefers-color-scheme: dark) { :root { filter: none; } }
</style></svg>